<svg width="97" height="17" viewBox="0 0 97 17" fill="none" xmlns="http://www.w3.org/2000/svg">
<path d="M96.5831 15.198V17L95.055 16.0055L90.9886 8.3555C91.5489 8.177 92.0582 7.888 92.4997 7.5055L96.5831 15.198ZM92.3384 4.25C92.3384 4.9263 92.0701 5.57491 91.5924 6.05312C91.1148 6.53134 90.467 6.8 89.7916 6.8H89.418L84.5281 16.0055L83 17V15.198L87.9154 5.95C86.9816 4.9045 87.0664 3.2895 88.1191 2.346C88.5776 1.938 89.1718 1.7 89.7916 1.7V0C90.0167 0 90.2326 0.0895533 90.3919 0.248959C90.5511 0.408365 90.6405 0.624566 90.6405 0.85V1.853C91.6592 2.21 92.3384 3.1705 92.3384 4.25ZM90.6405 4.25C90.6405 4.02457 90.5511 3.80837 90.3919 3.64896C90.2326 3.48955 90.0167 3.4 89.7916 3.4C89.5664 3.4 89.3505 3.48955 89.1913 3.64896C89.0321 3.80837 88.9426 4.02457 88.9426 4.25C88.9426 4.47543 89.0321 4.69163 89.1913 4.85104C89.3505 5.01045 89.5664 5.1 89.7916 5.1C90.0167 5.1 90.2326 5.01045 90.3919 4.85104C90.5511 4.69163 90.6405 4.47543 90.6405 4.25Z" fill="#ACABAB"/>
<path d="M5.7 1.66C5.94 2.7 8.08 13.58 8.28 14.84C8.42 15.42 8.48 16.04 8.58 16.72L10.42 16.38C10.22 15.8 10.06 15.12 9.92 14.56C9.64 13.24 7.44 2.26 7.32 1.38C7.24 0.94 7.16 0.36 7.12 0L5.34 0.3C5.48 0.72 5.6 1.16 5.7 1.66ZM0.06 4.56L0.42 6.34C1 6.2 1.48 6.1 2.02 6C3.78 5.7 10.6 4.62 12.66 4.3C13.2 4.22 13.8 4.12 14.1 4.1L13.78 2.42C13.44 2.52 12.92 2.64 12.34 2.74C10.44 3.12 3.54 4.22 1.74 4.42C1.1 4.48 0.56 4.52 0.06 4.56ZM0 10.32L0.36 12.08C0.8 11.96 1.36 11.84 2.14 11.7C4.16 11.34 11.38 10.16 14.04 9.76C14.78 9.64 15.42 9.52 15.84 9.48L15.5 7.8C15.08 7.92 14.5 8.06 13.74 8.2C11.34 8.64 3.9 9.86 1.76 10.14C1.24 10.22 0.48 10.3 0 10.32Z" fill="#ACABAB"/>
<path d="M36.5 2.3L35.5 1.34C35.22 1.42 34.5 1.48 34.12 1.48C32.92 1.48 23.58 1.48 22.62 1.48C21.88 1.48 21.06 1.4 20.36 1.3V3.1C21.14 3.04 21.88 3 22.62 3C23.58 3 32.62 3 34.02 3C33.38 4.24 31.5 6.4 29.64 7.46L30.98 8.52C33.26 6.94 35.16 4.36 35.96 3C36.1 2.78 36.34 2.48 36.5 2.3ZM28.5 4.92H26.7C26.78 5.46 26.78 5.9 26.78 6.38C26.78 9.72 26.34 12.56 23.26 14.46C22.7 14.84 22 15.18 21.46 15.36L22.92 16.56C28.02 14 28.5 10.34 28.5 4.92Z" fill="#ACABAB"/>
<path d="M42.5 0.92V2.58C43.04 2.54 43.68 2.52 44.28 2.52C45.38 2.52 51 2.52 52.12 2.52C52.8 2.52 53.5 2.54 53.96 2.58V0.92C53.48 0.979999 52.78 1.02 52.16 1.02C50.98 1.02 45.36 1.02 44.28 1.02C43.64 1.02 43.02 0.979999 42.5 0.92ZM55.44 6.18L54.3 5.48C54.08 5.58 53.64 5.64 53.18 5.64C52.16 5.64 43.64 5.64 42.66 5.64C42.1 5.64 41.42 5.58 40.7 5.52V7.2C41.42 7.14 42.18 7.12 42.66 7.12C43.86 7.12 52.28 7.12 53.26 7.12C52.9 8.58 52.1 10.28 50.9 11.54C49.18 13.34 46.68 14.64 43.86 15.22L45.1 16.64C47.64 15.92 50.16 14.76 52.24 12.46C53.74 10.82 54.64 8.74 55.16 6.78C55.2 6.62 55.34 6.38 55.44 6.18Z" fill="#ACABAB"/>
<path d="M62.42 1.16L61.26 2.38C62.76 3.36 65.24 5.52 66.26 6.56L67.5 5.28C66.4 4.18 63.82 2.1 62.42 1.16ZM60.7 14.56L61.74 16.2C65.08 15.58 67.6 14.34 69.62 13.08C72.64 11.18 74.96 8.46 76.32 5.98L75.36 4.26C74.2 6.74 71.78 9.7 68.68 11.64C66.78 12.82 64.18 14.04 60.7 14.56Z" fill="#ACABAB"/>
</svg>
