<svg class="text-base-20" width="51" height="30" viewBox="0 0 51 30" fill="none" xmlns="http://www.w3.org/2000/svg">
<g clip-path="url(#clip0_131_37)">
<path d="M0 29.5819L9.23958 5.94179C10.5417 2.61043 13.7528 0.417847 17.3295 0.417847H22.8999L13.6603 24.0579C12.3583 27.3893 9.14717 29.5819 5.57043 29.5819H0Z" fill="hsl(236 8% 25%)"/>
<path d="M13.5549 29.582L22.7945 5.94191C24.0965 2.61055 27.3076 0.417969 30.8843 0.417969H36.4548L27.2152 24.058C25.9132 27.3894 22.7021 29.582 19.1253 29.582H13.5549Z" fill="hsl(236 8% 25%)"/>
<path d="M27.1106 29.582L36.3502 5.94191C37.6522 2.61055 40.8633 0.417969 44.44 0.417969H50.0104L40.7708 24.058C39.4688 27.3894 36.2578 29.582 32.681 29.582H27.1106Z" fill="hsl(236 8% 25%)"/>
</g>
<defs>
<clipPath id="clip0_131_37">
<rect width="50.8333" height="30" fill="white"/>
</clipPath>
</defs>
</svg>
